HIERARCHY
ROOT Hips
{
    OFFSET 0.000000 0.000000 0.000000
    CHANNELS 6 Xposition Yposition Zposition Zrotation Xrotation Yrotation
    JOINT Spine
    {
        OFFSET -0.000000 7.858286 0.000000
        CHANNELS 3 Zrotation Xrotation Yrotation
        JOINT Spine1
        {
            OFFSET -0.000000 25.138355 0.000000
            CHANNELS 3 Zrotation Xrotation Yrotation
            JOINT Neck
            {
                OFFSET -0.000000 25.035116 2.275919
                CHANNELS 3 Zrotation Xrotation Yrotation
                JOINT Head
                {
                    OFFSET -0.000000 13.416585 -1.916655
                    CHANNELS 3 Zrotation Xrotation Yrotation
                    End Site
                    {
                        OFFSET -0.000000 23.958189 0.000000
                    }
                }
            }
            JOINT LeftShoulder
            {
                OFFSET 3.815342 24.034578 -0.234509
                CHANNELS 3 Zrotation Xrotation Yrotation
                JOINT LeftArm
                {
                    OFFSET 8.622727 0.000000 0.000000
                    CHANNELS 3 Zrotation Xrotation Yrotation
                    JOINT LeftForeArm
                    {
                        OFFSET 31.706440 0.000000 0.000000
                        CHANNELS 3 Zrotation Xrotation Yrotation
                        JOINT LeftHand
                        {
                            OFFSET 23.773136 0.000000 0.000000
                            CHANNELS 3 Zrotation Xrotation Yrotation
                            End Site
                            {
                                OFFSET 14.374913 0.000000 0.000000
                            }
                        }
                    }
                }
            }
            JOINT RightShoulder
            {
                OFFSET -3.836082 24.034578 -0.234509
                CHANNELS 3 Zrotation Xrotation Yrotation
                JOINT RightArm
                {
                    OFFSET -8.622727 0.000000 0.000000
                    CHANNELS 3 Zrotation Xrotation Yrotation
                    JOINT RightForeArm
                    {
                        OFFSET -31.706440 0.000000 0.000000
                        CHANNELS 3 Zrotation Xrotation Yrotation
                        JOINT RightHand
                        {
                            OFFSET -23.773136 0.000000 0.000000
                            CHANNELS 3 Zrotation Xrotation Yrotation
                            End Site
                            {
                                OFFSET -14.374913 0.000000 0.000000
                            }
                        }
                    }
                }
            }
        }
    }
    JOINT LeftUpLeg
    {
        OFFSET 9.583276 0.000000 0.000000
        CHANNELS 3 Zrotation Xrotation Yrotation
        JOINT LeftLeg
        {
            OFFSET -0.000000 -36.453522 0.000000
            CHANNELS 3 Zrotation Xrotation Yrotation
            JOINT LeftFoot
            {
                OFFSET -0.000000 -41.465855 0.000000
                CHANNELS 3 Zrotation Xrotation Yrotation
                JOINT LeftToeBase
                {
                    OFFSET -0.000000 -6.229129 14.374913
                    CHANNELS 3 Zrotation Xrotation Yrotation
                    End Site
                    {
                        OFFSET -0.000000 0.000000 3.833310
                    }
                }
            }
        }
    }
    JOINT RightUpLeg
    {
        OFFSET -9.583276 0.000000 0.000000
        CHANNELS 3 Zrotation Xrotation Yrotation
        JOINT RightLeg
        {
            OFFSET -0.000000 -36.453522 0.000000
            CHANNELS 3 Zrotation Xrotation Yrotation
            JOINT RightFoot
            {
                OFFSET -0.000000 -41.465855 0.000000
                CHANNELS 3 Zrotation Xrotation Yrotation
                JOINT RightToeBase
                {
                    OFFSET -0.000000 -6.229129 14.374913
                    CHANNELS 3 Zrotation Xrotation Yrotation
                    End Site
                    {
                        OFFSET -0.000000 0.000000 3.833310
                    }
                }
            }
        }
    }
}
MOTION
Frames:    11
Frame Time:    0.004000
5.491314    80.498489    -122.133461    1.993699    0.243908    -7.161874    -2.010643    -12.522068    0.229301    -2.159617    11.276915    0.663242    -2.074203    36.622696    -2.274737    -2.047561    7.703442    -2.950639    -21.222963    25.917648    7.479182    -23.763674    33.755226    -36.759064    -1.921730    -15.669300    -21.942070    10.827497    -16.502203    -5.205511    17.746832    34.905807    0.748838    9.452566    45.070946    43.321037    -3.451092    -23.816902    22.685085    -7.073781    -22.904062    -4.883414    3.657653    -14.547015    2.556578    -8.438608    6.429894    3.618351    1.218590    -0.997197    7.281623    0.000000    0.000000    0.000000    -6.267931    8.929266    2.739150    2.885061    27.571182    2.128554    4.363811    -0.552193    0.790964    0.000000    0.000000    0.000000    
5.545750    80.564903    -121.788040    1.936692    0.263191    -7.131855    -2.046166    -12.439614    0.221313    -2.134093    11.170332    0.653208    -2.089840    36.649422    -2.272863    -2.062819    7.707683    -2.953567    -21.171637    25.894669    7.422813    -23.817719    33.685345    -36.690033    -1.956014    -15.443146    -21.930099    10.737391    -16.275465    -5.164047    17.677593    34.977737    0.795833    9.472790    45.200184    43.305878    -3.445881    -23.914557    22.745186    -6.988541    -22.999039    -4.989159    3.649768    -14.437762    2.787661    -8.423404    6.681892    2.998998    1.294892    -1.101233    7.456657    0.000000    0.000000    0.000000    -6.249461    8.432448    2.847970    2.959495    28.540554    1.817807    2.980088    0.228926    1.215063    0.000000    0.000000    0.000000    
5.599561    80.628502    -121.440529    1.882128    0.275902    -7.123145    -2.084012    -12.380569    0.219811    -2.079544    11.103949    0.648058    -2.160256    36.701473    -2.257890    -2.060171    7.630133    -2.954904    -21.180788    25.846836    7.406803    -23.738472    33.627773    -36.646500    -2.114520    -15.254920    -22.052847    10.749439    -16.102566    -4.968006    17.548227    34.996254    0.862293    9.528787    45.378738    43.274700    -3.481677    -23.952835    22.866550    -6.854785    -23.030157    -5.037421    3.643392    -14.294583    2.960946    -8.427290    6.864093    2.649055    1.497039    -1.162759    7.391615    0.000000    0.000000    0.000000    -6.260177    7.911969    2.707060    2.987689    29.501184    1.414691    2.522560    1.261117    1.768710    0.000000    0.000000    0.000000    
5.652807    80.688179    -121.093750    1.822678    0.252300    -7.120348    -2.101335    -12.275878    0.231247    -2.084365    11.025846    0.658536    -2.136935    36.724335    -2.269018    -2.107347    7.599728    -2.966387    -21.113087    25.860786    7.386236    -23.703516    33.605698    -36.684536    -2.080220    -15.043304    -22.063932    10.668546    -15.872612    -4.861606    17.460283    35.145729    0.868095    9.661146    45.273460    43.261021    -3.431811    -23.921917    22.959135    -6.665806    -23.016802    -4.971900    3.644800    -14.094600    3.174892    -8.443268    7.020528    2.232578    1.651691    -1.247590    7.405413    0.000000    0.000000    0.000000    -6.248764    7.459002    2.696610    3.015429    30.413519    1.108646    2.622185    2.227319    2.169481    0.000000    0.000000    0.000000    
5.700536    80.738708    -120.756271    1.763694    0.231066    -7.099744    -2.148689    -12.193831    0.223627    -2.024703    10.980127    0.647900    -2.200350    36.730408    -2.252159    -2.094825    7.589838    -2.961323    -21.100264    25.772274    7.346378    -23.696117    33.627815    -36.632065    -2.047107    -14.879741    -22.096102    10.549650    -15.683441    -4.684893    17.378399    35.186676    0.935944    9.681758    45.365925    43.248264    -3.404238    -23.950769    22.955074    -6.643693    -23.055946    -4.897859    3.635956    -13.908902    3.353234    -8.446431    7.176911    1.848208    1.890715    -1.338673    7.408008    0.000000    0.000000    0.000000    -6.233927    6.978929    2.540469    3.017444    31.366348    0.857039    2.429814    3.169316    2.387149    0.000000    0.000000    0.000000    
5.756709    80.788818    -120.401764    1.709096    0.190404    -7.081932    -2.193424    -12.074955    0.229493    -1.981231    10.907228    0.650754    -2.203637    36.769108    -2.261591    -2.120327    7.528935    -2.975819    -21.057720    25.790253    7.298933    -23.699986    33.539085    -36.654045    -2.042089    -14.623960    -22.059139    10.526103    -15.422807    -4.647932    17.293802    35.194195    0.977576    9.721251    45.534180    43.201645    -3.429015    -24.049973    23.047297    -6.245391    -23.172432    -4.736135    3.585330    -13.692590    3.554081    -8.396605    7.322890    1.432242    2.198537    -1.451201    7.427310    0.000000    0.000000    0.000000    -6.247932    6.482668    2.315006    2.959237    32.416309    1.153008    1.653422    3.879360    2.397018    0.000000    0.000000    0.000000    
5.807000    80.839859    -120.059052    1.659653    0.180250    -7.057856    -2.222878    -12.016399    0.217777    -1.972307    10.886859    0.639894    -2.250514    36.722996    -2.247726    -2.126106    7.565505    -2.969751    -21.009775    25.738848    7.252462    -23.670183    33.565342    -36.598145    -1.936505    -14.429495    -22.125568    10.226164    -15.197403    -4.635608    17.207434    35.211605    1.085150    9.758400    45.644218    43.160694    -3.430975    -24.052349    23.173109    -6.348846    -23.153397    -5.000833    3.560394    -13.532776    3.821639    -8.382195    7.534406    0.969746    2.418409    -1.599709    7.531375    0.000000    0.000000    0.000000    -6.225820    5.978568    2.211621    2.912786    33.377125    1.032026    3.128203    5.100072    2.162267    0.000000    0.000000    0.000000    
5.859843    80.873581    -119.726791    1.584473    0.208905    -7.044140    -2.212813    -11.952841    0.230674    -1.980272    10.808942    0.649742    -2.223671    36.738995    -2.266390    -2.153701    7.512633    -2.987161    -20.916943    25.756489    7.186153    -23.644590    33.543949    -36.633495    -1.829187    -14.177150    -22.140062    10.060095    -14.899881    -4.407003    17.152285    35.207310    1.139588    9.862497    45.728989    43.058369    -3.361692    -24.076517    23.256630    -5.953489    -23.213106    -4.817644    3.586321    -13.399884    3.977112    -8.416821    7.687470    0.637150    2.747922    -1.771707    7.641262    0.000000    0.000000    0.000000    -6.165337    5.361029    1.918089    2.716011    34.475552    1.218373    3.032099    5.822980    2.355905    0.000000    0.000000    0.000000    
5.913363    80.909317    -119.381157    1.556349    0.144975    -7.008145    -2.258773    -11.826522    0.210576    -1.990339    10.762181    0.632078    -2.242454    36.778107    -2.222164    -2.182782    7.409778    -2.950175    -20.873138    25.662430    7.171405    -23.612377    33.595695    -36.603386    -1.758518    -13.941251    -22.108608    9.964203    -14.665202    -4.619399    17.091356    35.215607    1.253040    9.930054    45.878693    42.929325    -3.393971    -24.092463    23.426933    -5.835276    -23.222708    -4.819947    3.516992    -13.141269    4.018692    -8.408980    7.769598    0.441300    3.033125    -1.944154    7.700774    0.000000    0.000000    0.000000    -6.142475    4.825040    1.306138    2.227692    35.639977    1.896564    2.872542    6.403466    2.375634    0.000000    0.000000    0.000000    
5.966484    80.948845    -119.025635    1.522227    0.041445    -6.974686    -2.307297    -11.667196    0.206806    -2.001719    10.721974    0.630540    -2.233049    36.747078    -2.223974    -2.200752    7.414151    -2.950673    -20.789095    25.666798    7.088535    -23.641691    33.482944    -36.533840    -1.695213    -13.641581    -22.211605    9.564119    -14.321893    -4.392348    17.087885    35.225861    1.278070    9.858702    45.980000    42.936821    -3.301252    -24.163921    23.515768    -5.673845    -23.322971    -4.668843    3.438268    -12.806966    4.039670    -8.382565    7.830155    -0.034216    3.273521    -2.106543    8.092082    0.000000    0.000000    0.000000    -6.114843    4.401330    1.185706    2.075638    36.669792    1.991340    2.323560    6.717037    2.633452    0.000000    0.000000    0.000000    
6.015460    80.987129    -118.669556    1.488630    -0.055139    -6.961574    -2.377722    -11.540459    0.203590    -1.952868    10.719597    0.627145    -2.288325    36.777195    -2.207098    -2.205336    7.316530    -2.947502    -20.767859    25.682085    7.057646    -23.545189    33.389011    -36.588383    -1.717723    -13.383801    -22.167084    9.428638    -14.084146    -4.651285    16.993181    35.260677    1.373090    9.873914    46.041759    42.927731    -3.280173    -24.167795    23.533216    -5.710892    -23.329176    -4.665784    3.373293    -12.476089    4.119768    -8.359775    7.865396    -0.136537    3.687201    -2.218213    8.016231    0.000000    0.000000    0.000000    -6.078120    3.922411    0.886944    1.765079    37.820606    2.472816    2.179487    6.918317    2.471251    0.000000    0.000000    0.000000    
